<?xml version="1.0" encoding="utf-8"?>
<!-- Generator: Adobe Illustrator 17.0.0, SVG Export Plug-In . SVG Version: 6.00 Build 0)  -->
<!DOCTYPE svg PUBLIC "-//W3C//DTD SVG 1.1//EN" "http://www.w3.org/Graphics/SVG/1.1/DTD/svg11.dtd">
<svg version="1.1" id="Layer_1" xmlns="http://www.w3.org/2000/svg" xmlns:xlink="http://www.w3.org/1999/xlink" x="0px" y="0px"
	 width="256px" height="256px" viewBox="-3 -3 256 256" enable-background="new -3 -3 256 256" xml:space="preserve">
<path fill="#F9A11B" d="M-136,157"/>
<path fill="#534492" d="M249,164.933v71.457c0,6.964-5.646,12.61-12.61,12.61H13.61C6.646,249,1,243.354,1,236.39v-71.457"/>
<path fill="#0061AC" d="M1,164.933V13.61C1,6.646,6.646,1,13.61,1h222.78C243.354,1,249,6.646,249,13.61v151.322"/>
<rect x="1" y="163.685" fill="#FFB000" width="248" height="3.546"/>
<linearGradient id="SVGID_1_" gradientUnits="userSpaceOnUse" x1="590.8922" y1="802.7908" x2="749.3833" y2="625.2417" gradientTransform="matrix(1 0 0 1 -588 -541)">
	<stop  offset="0" style="stop-color:#000000;stop-opacity:0.5"/>
	<stop  offset="1" style="stop-color:#231F20;stop-opacity:0"/>
</linearGradient>
<path fill="url(#SVGID_1_)" d="M249,236.39c0,6.964-5.646,12.61-12.61,12.61H13.61C6.646,249,1,243.354,1,236.39V13.61
	C1,6.646,6.646,1,13.61,1h222.78C243.354,1,249,6.646,249,13.61V236.39z"/>
<g>
	<g>
		<g>
			<path fill="#FFFFFF" stroke="#FFFFFF" stroke-miterlimit="10" d="M124.965,114.451h22.751l22.331,34.113l22.378-34.113h22.725
				l-33.709,51.514l35.831,54.734H194.52l-24.455-37.354L145.621,220.7h-22.896l35.935-54.777L124.965,114.451z"/>
		</g>
	</g>
</g>
</svg>
